# xmcd CD database file
#
# Track frame offsets:
#	150
#	25679
#	45726
#	70377
#	90677
#	106408
#	134830
#	148576
#	180339
#	199922
#	221011
#
# Disc length: 3298 seconds
#
# Revision: 0
# Processed by: cddbd v1.5.1PL2 Copyright (c) Steve Scherf et al.
# Submitted via: CDex 1.51
#
DISCID=a50ce00b
DTITLE=Stacey Kent - Close Your Eyes
DYEAR=1999
DGENRE=Jazz
TTITLE0=01.more than you know
TTITLE1=02.dream dancing
TTITLE2=03.close your eyes
TTITLE3=04.there's a lull in my life
TTITLE4=05.its delovely
TTITLE5=06.there's no you
TTITLE6=07.i'm old fashioned
TTITLE7=08.you go to my head
TTITLE8=09.little white lies
TTITLE9=10.sleep warm
TTITLE10=11.day in-day out
EXTD=YEAR: 1999
EXTT0=
EXTT1=
EXTT2=
EXTT3=
EXTT4=
EXTT5=
EXTT6=
EXTT7=
EXTT8=
EXTT9=
EXTT10=
PLAYORDER=
